<svg width="25" height="25" viewBox="0 0 25 25" fill="none" xmlns="http://www.w3.org/2000/svg">
<path d="M21.7894 16.0172L18.1851 19.5982L11.6577 13.1107C11.4773 12.9317 11.376 12.6888 11.376 12.4355C11.376 12.1822 11.4773 11.9393 11.6577 11.7603L18.1851 5.27148L21.7894 8.8538L18.8637 11.759C18.6833 11.9382 18.5819 12.1813 18.5819 12.4348C18.5819 12.6884 18.6833 12.9315 18.8637 13.1107L21.7894 16.0172Z" fill="url(#paint0_linear_40000004_8384)"/>
<path d="M18.1858 19.5981L15.2589 22.5084C14.8829 22.8805 14.275 22.8805 13.899 22.5084L4.44729 13.1144C4.07291 12.7406 4.07291 12.1364 4.44729 11.7627L13.9054 2.36232C14.2814 1.99023 14.8893 1.99023 15.2653 2.36232L18.1883 5.26883L11.6584 11.7602C11.4781 11.9391 11.3767 12.1821 11.3767 12.4354C11.3767 12.6887 11.4781 12.9316 11.6584 13.1105L18.1858 19.5981Z" fill="url(#paint1_linear_40000004_8384)"/>
<path d="M24.7153 13.1106L21.791 16.0171L18.8653 13.1106C18.6849 12.9314 18.5835 12.6883 18.5835 12.4348C18.5835 12.1813 18.6849 11.9382 18.8653 11.759L21.7897 8.85376L24.714 11.759C25.0887 12.1324 25.0893 12.7366 24.7153 13.1106Z" fill="url(#paint2_linear_40000004_8384)"/>
<rect y="6.25" width="12.5" height="12.5" rx="1.31579" fill="#46A095"/>
<path d="M6.67103 16.0156C7.8125 16.0156 8.75748 15.6121 9.375 14.8691L8.40195 13.9886C7.9622 14.4931 7.41018 14.7499 6.75524 14.7499C5.52957 14.7499 4.65943 13.906 4.65943 12.6953C4.65943 11.4846 5.52957 10.6408 6.75524 10.6408C7.41018 10.6408 7.9622 10.8976 8.40195 11.3929L9.375 10.5123C8.75748 9.77857 7.8125 9.375 6.68039 9.375C4.64072 9.375 3.125 10.76 3.125 12.6953C3.125 14.6306 4.64072 16.0156 6.67103 16.0156Z" fill="white"/>
<defs>
<linearGradient id="paint0_linear_40000004_8384" x1="15.4953" y1="8.79664" x2="21.0344" y2="14.3019" gradientUnits="userSpaceOnUse">
<stop stop-color="#0C7E7E"/>
<stop offset="0.5" stop-color="#159995"/>
<stop offset="1" stop-color="#3FAEA7"/>
</linearGradient>
<linearGradient id="paint1_linear_40000004_8384" x1="10.2479" y1="7.03966" x2="18.1524" y2="14.896" gradientUnits="userSpaceOnUse">
<stop stop-color="#3FAEA7"/>
<stop offset="0.5" stop-color="#6EC3BA"/>
<stop offset="1" stop-color="#9FD3CB"/>
</linearGradient>
<linearGradient id="paint2_linear_40000004_8384" x1="20.3601" y1="10.6614" x2="23.5957" y2="13.8762" gradientUnits="userSpaceOnUse">
<stop stop-color="#0D6365"/>
<stop offset="0.5" stop-color="#0C7E7E"/>
<stop offset="1" stop-color="#159995"/>
</linearGradient>
</defs>
</svg>
