<svg width="24" height="24" viewBox="0 0 24 24" fill="none" xmlns="http://www.w3.org/2000/svg">
<path d="M13.7343 11.1836C13.7343 11.8659 13.1831 12.4171 12.5008 12.4171C11.8185 12.4171 11.2673 11.8659 11.2673 11.1836C11.2673 10.5014 11.8185 9.95015 12.5008 9.95015C13.1831 9.95015 13.7343 10.5014 13.7343 11.1836ZM6.95005 11.1836C6.95005 8.11918 9.43632 5.63291 12.5008 5.63291C15.5652 5.63291 18.0515 8.11918 18.0515 11.1836C18.0515 14.2481 15.5652 16.7344 12.5008 16.7344C9.43632 16.7344 6.95005 14.2481 6.95005 11.1836ZM12.5008 14.2674C14.2045 14.2674 15.5845 12.8874 15.5845 11.1836C15.5845 9.47988 14.2045 8.0999 12.5008 8.0999C10.797 8.0999 9.41704 9.47988 9.41704 11.1836C9.41704 12.8874 10.797 14.2674 12.5008 14.2674ZM22.3688 11.1836C22.3688 16.6342 17.9513 21.0516 12.5008 21.0516C7.05027 21.0516 2.63281 16.6342 2.63281 11.1836C2.63281 5.73313 7.05027 1.31567 12.5008 1.31567C17.9513 1.31567 22.3688 5.73313 22.3688 11.1836ZM12.5008 3.78267C8.38013 3.78267 5.0998 7.06299 5.0998 11.1836C5.0998 15.2696 8.38013 18.5846 12.5008 18.5846C16.5867 18.5846 19.9018 15.2696 19.9018 11.1836C19.9018 7.06299 16.5867 3.78267 12.5008 3.78267Z" fill="url(#paint0_radial_40000004_8361)"/>
<rect y="5.70166" width="10.5259" height="10.5259" rx="1.31579" fill="#661AA2"/>
<path d="M5.34395 12.6316C6.76741 12.6316 7.89456 11.6978 7.89456 10.4025C7.89456 8.82861 6.76741 7.89478 5.34395 7.89478H3.15771V12.6316V14.2106H3.70427H4.25083V12.6316H5.34395ZM5.34395 11.6099H4.25083V9.00933H5.34395C6.11824 9.00933 6.80144 9.31686 6.80144 10.4025C6.80144 11.2095 6.11824 11.6099 5.34395 11.6099Z" fill="white"/>
<defs>
<radialGradient id="paint0_radial_40000004_8361" cx="0" cy="0" r="1" gradientUnits="userSpaceOnUse" gradientTransform="translate(12.5008 11.1836) rotate(90) scale(9.86797)">
<stop stop-color="#A36DCD"/>
<stop offset="1" stop-color="#631C9A"/>
</radialGradient>
</defs>
</svg>
