<svg width="24" height="18" viewBox="0 0 24 18" fill="none" xmlns="http://www.w3.org/2000/svg">
<path d="M21.3646 2.85015V14.5461H4.12305V2.85015C4.12305 2.09504 4.4227 1.37079 4.95622 0.836417C5.48974 0.302047 6.21351 0.00123695 6.96862 3.26272e-05H18.5009C18.8763 -0.0017637 19.2484 0.0706309 19.5958 0.213058C19.9431 0.355485 20.2589 0.565138 20.5251 0.829975C20.7912 1.09481 21.0023 1.40961 21.1464 1.7563C21.2905 2.10298 21.3646 2.47471 21.3646 2.85015V2.85015Z" fill="url(#paint0_linear_40000004_8376)"/>
<path d="M6.16846 12.4777V2.85008C6.16846 2.6379 6.25275 2.43441 6.40278 2.28437C6.55282 2.13434 6.75631 2.05005 6.96849 2.05005H18.5008C18.713 2.05005 18.9164 2.13434 19.0665 2.28437C19.2165 2.43441 19.3008 2.6379 19.3008 2.85008V12.4777H6.16846Z" fill="url(#paint1_radial_40000004_8376)"/>
<path d="M3.42286 14.5461H22.06C22.24 14.5521 22.4107 14.6281 22.5355 14.758C22.6603 14.8879 22.7295 15.0615 22.7282 15.2416V15.2416C22.7404 15.7216 22.5623 16.1869 22.2328 16.5361C21.9032 16.8853 21.4489 17.0899 20.969 17.1053H4.50927C4.02938 17.0899 3.57509 16.8853 3.24551 16.5361C2.91594 16.1869 2.73785 15.7216 2.7501 15.2416V15.2416C2.74885 15.0607 2.81862 14.8865 2.94441 14.7565C3.07021 14.6264 3.24199 14.5509 3.42286 14.5461V14.5461Z" fill="url(#paint2_linear_40000004_8376)"/>
<path d="M9.54584 3.1001H1.36369C0.610545 3.1001 0 3.71064 0 4.46379V12.6459C0 13.3991 0.610545 14.0096 1.36369 14.0096H9.54584C10.299 14.0096 10.9095 13.3991 10.9095 12.6459V4.46379C10.9095 3.71064 10.299 3.1001 9.54584 3.1001Z" fill="#2DA2C5"/>
<path d="M9.09138 5.86377L7.65041 11.2413H6.31399L5.45487 7.9684L4.57756 11.2413H3.25933L1.81836 5.86377H3.11841L4.02754 9.29573L4.93667 5.86377H6.08217L6.99129 9.32754L7.90042 5.86377H9.09138Z" fill="white"/>
<defs>
<linearGradient id="paint0_linear_40000004_8376" x1="21.06" y1="1.18642" x2="4.75395" y2="14.5866" gradientUnits="userSpaceOnUse">
<stop stop-color="#2DA2C5"/>
<stop offset="0.5" stop-color="#40B1D2"/>
<stop offset="0.76" stop-color="#3992AC"/>
</linearGradient>
<radialGradient id="paint1_radial_40000004_8376" cx="0" cy="0" r="1" gradientUnits="userSpaceOnUse" gradientTransform="translate(15.4506 -1.46373) scale(14.7324)">
<stop stop-color="#B0E4F3"/>
<stop offset="0.33" stop-color="#83C8DD"/>
<stop offset="0.66" stop-color="#49B2D1"/>
<stop offset="1" stop-color="#7DC0D5"/>
</radialGradient>
<linearGradient id="paint2_linear_40000004_8376" x1="12.9369" y1="13.4506" x2="12.4005" y2="18.3463" gradientUnits="userSpaceOnUse">
<stop stop-color="#39859C"/>
<stop offset="1" stop-color="#2D7489"/>
</linearGradient>
</defs>
</svg>
