<svg width="25" height="18" viewBox="0 0 25 18" fill="none" xmlns="http://www.w3.org/2000/svg">
<path d="M11.6899 2.7959C12.8294 0.82229 15.6783 0.822448 16.8179 2.7959L21.7563 11.3486C22.8957 13.3223 21.4709 15.7891 19.1919 15.7891H9.31592C7.03718 15.7887 5.61301 13.3222 6.75244 11.3486L11.6899 2.7959Z" fill="url(#paint0_linear_40000004_8394)" stroke="url(#paint1_linear_40000004_8394)" stroke-width="2.63158"/>
<path d="M14.2517 11.1119C15.8791 11.1119 17.1743 9.81561 17.1743 8.21645C17.1743 6.61729 15.855 5.32103 14.2517 5.32103C12.6243 5.32103 11.3292 6.61729 11.3292 8.21645C11.3037 9.8145 12.6246 11.1119 14.2517 11.1119ZM15.6691 12.0028H12.8401C10.6148 12.0028 8.81198 13.6649 8.81198 15.7139C8.81198 16.126 9.17199 16.4573 9.61703 16.4573H18.8921C19.3371 16.4573 19.6972 16.126 19.6972 15.7139C19.6972 13.6649 17.8943 12.0028 15.6691 12.0028ZM19.6972 6.65738C20.9495 6.65738 21.9649 5.66013 21.9649 4.43013C21.9649 3.20013 20.9501 2.20288 19.6972 2.20288C18.4448 2.20288 17.4294 3.20013 17.4294 4.43013C17.4294 5.66013 18.4442 6.65738 19.6972 6.65738ZM10.3966 8.21645C10.3966 8.06475 10.4244 7.9205 10.4422 7.77351C10.1329 7.60674 9.79278 7.54828 9.43278 7.54828H7.68038C6.30159 7.54828 5.18359 8.71201 5.18359 10.1458C5.18359 10.4326 5.40716 10.6664 5.68306 10.6664H11.3382C10.7594 10.0038 10.3966 9.15468 10.3966 8.21645ZM8.81198 6.65738C10.0643 6.65738 11.0797 5.66013 11.0797 4.43013C11.0797 3.20013 10.0649 2.20288 8.81198 2.20288C7.55962 2.20288 6.54424 3.20013 6.54424 4.43013C6.54424 5.66013 7.55962 6.65738 8.81198 6.65738ZM20.8282 7.54828H19.0752C18.7124 7.54828 18.37 7.63283 18.0587 7.77768C18.0757 7.92412 18.1041 8.06611 18.1041 8.21645C18.1041 9.15496 17.7418 10.0041 17.1641 10.6664H22.8249C23.1016 10.6664 23.3255 10.4326 23.3255 10.1458C23.3255 8.71201 22.2087 7.54828 20.8282 7.54828Z" fill="url(#paint2_linear_40000004_8394)"/>
<rect x="0.438477" y="3.17993" width="10.6908" height="10.6908" rx="1.31579" fill="#005048"/>
<path d="M6.24956 9.97822C7.53463 9.97822 8.55219 9.13518 8.55219 7.96584C8.55219 6.54495 7.53463 5.7019 6.24956 5.7019H4.27588V9.97822V11.4037H4.7693H5.26272V9.97822H6.24956ZM6.24956 9.05588H5.26272V6.7081H6.24956C6.94858 6.7081 7.56535 6.98573 7.56535 7.96584C7.56535 8.6944 6.94858 9.05588 6.24956 9.05588Z" fill="white"/>
<defs>
<linearGradient id="paint0_linear_40000004_8394" x1="9.63662" y1="2.75049" x2="19.2734" y2="20.8194" gradientUnits="userSpaceOnUse">
<stop stop-color="#005048"/>
<stop offset="1" stop-color="#BDE4E0"/>
</linearGradient>
<linearGradient id="paint1_linear_40000004_8394" x1="3.41287" y1="1.5459" x2="24.0918" y2="18.8118" gradientUnits="userSpaceOnUse">
<stop stop-color="#003731"/>
<stop offset="1" stop-color="#3FB1A5"/>
</linearGradient>
<linearGradient id="paint2_linear_40000004_8394" x1="8.77419" y1="7.90464" x2="18.9495" y2="9.5167" gradientUnits="userSpaceOnUse">
<stop stop-color="#3FB1A5"/>
<stop offset="1" stop-color="#003731"/>
</linearGradient>
</defs>
</svg>
