<svg width="22" height="22" viewBox="0 0 22 22" fill="none" xmlns="http://www.w3.org/2000/svg">
<ellipse cx="10.5263" cy="10.5263" rx="10.5263" ry="10.5263" fill="#21B6D9"/>
<mask id="mask0_40000004_8355" style="mask-type:alpha" maskUnits="userSpaceOnUse" x="0" y="0" width="22" height="22">
<ellipse cx="10.5263" cy="10.5263" rx="10.5263" ry="10.5263" fill="#21B6D9"/>
</mask>
<g mask="url(#mask0_40000004_8355)">
<path d="M64.1804 10.1378C63.7257 9.13834 62.6127 10.0292 62.1882 10.5156C61.7595 11.0072 61.3589 11.5254 60.9743 12.0522C60.9585 11.6429 61.0724 11.2062 61.1331 10.8032C61.2049 10.3261 61.2527 10.0111 60.6513 10.0111C59.8988 10.0111 59.7895 10.6838 59.6459 11.3022C59.4593 12.1057 59.3137 12.9186 59.207 13.7363C58.2488 14.6128 55.7118 16.5114 54.7487 14.7834C55.8676 14.4751 56.9701 13.797 57.5536 12.767C58.1563 11.7032 57.8554 10.318 56.6457 9.86408C53.9783 8.86481 52.4339 12.4324 52.7426 14.5261C52.3842 14.7891 51.3223 15.6216 50.9298 15.0291C50.5394 14.4406 50.7525 13.3898 50.9734 12.771C51.6818 11.0519 52.5507 9.40558 53.0926 7.6205C53.4997 6.27953 54.1392 3.94893 53.1313 2.72475C51.8212 1.13359 50.0589 3.93332 49.6203 4.93197C48.9058 6.55787 48.5629 8.3715 48.5208 10.142C46.3521 10.3412 44.5932 12.4158 44.5881 14.5663C43.6228 15.1938 41.9847 16.1352 41.2313 14.7834C42.3504 14.4751 43.4527 13.797 44.0362 12.767C44.639 11.7032 44.338 10.318 43.1283 9.86408C40.4622 8.8652 38.9356 12.4116 39.226 14.5053C38.5412 14.9633 37.7771 15.412 36.9356 15.4772C36.0804 15.544 35.9288 14.898 35.5761 14.2649C36.5296 14.2986 37.4704 14.0942 38.1539 13.3755C38.902 12.5891 39.2231 11.2656 38.4469 10.3849C37.7317 9.57364 36.4506 9.55658 35.5687 10.0864C34.6093 10.6627 34.0684 11.7659 33.8465 12.8282C32.8308 12.7701 32.3513 12.4663 32.3365 12.4698C33.5301 10.9428 34.5217 9.26827 35.2867 7.48764C35.8099 6.26958 36.9119 3.5173 34.9852 2.90123C33.2107 2.33191 32.0369 4.36388 31.4771 5.70991C30.7264 7.51558 30.3372 9.45349 30.0297 11.3765C29.7227 11.2468 28.6232 10.4871 28.7849 11.4336C28.8811 11.9958 29.3733 12.6133 29.8117 12.9596C29.7993 13.1739 29.7654 13.4241 29.7326 13.654C29.0566 14.2155 28.2317 15.0535 27.3386 15.2152C26.2719 15.4085 26.6908 13.2916 26.877 12.7701C27.5854 11.051 28.4543 9.40466 28.9961 7.61958C29.4032 6.27861 30.043 3.94801 29.0351 2.72383C27.725 1.13267 25.9625 3.9324 25.5239 4.93105C24.8095 6.55695 24.4664 8.37058 24.4243 10.1411C22.175 10.3478 20.377 12.5635 20.5048 14.7917C20.2732 15.006 19.5321 15.6773 19.2131 15.3011C18.8408 14.8616 19.1573 13.7417 19.2456 13.2484C19.4397 12.1626 20.1174 10.5053 18.7738 9.94826C16.1191 8.84752 13.8737 11.9236 13.4833 14.2106C12.5106 14.953 10.4434 16.3067 9.5939 14.7827C10.6593 14.4892 11.6989 13.865 12.3053 12.921C12.9514 11.9159 12.8375 10.5022 11.6704 9.93984C9.05295 8.67908 7.39282 12.1921 7.56911 14.2681C7.12851 14.5819 6.67092 14.8957 6.16832 15.1038C5.90952 15.2109 5.60601 15.3482 5.43945 15.0448C5.29965 14.7785 5.22747 14.4819 5.22925 14.1812V14.0734C5.42621 12.7753 6.25497 11.6438 6.86603 10.5111C7.58074 9.18709 8.29599 7.83961 8.73842 6.39585C9.04422 5.39827 9.64656 3.21523 8.56864 2.46554C7.36511 1.62814 5.95016 3.59008 5.45039 4.42319C4.02603 6.79841 3.15479 9.85964 3.15479 12.632C3.15479 13.9514 3.34661 15.5756 4.22964 16.6243C5.22573 17.8071 7.12001 16.5264 8.10225 15.9021C9.40935 17.8919 12.0061 17.0569 13.6223 15.9633C14.4592 17.8134 16.6934 17.1133 17.7535 15.8784C17.9754 16.4404 18.3352 17.055 18.9909 17.1453C19.7354 17.248 20.4324 16.7819 20.9684 16.3201C22.0462 17.9366 24.0845 16.7535 25.1185 15.7475C25.4262 16.4898 26.1642 17.2316 27.0398 17.0959C27.9431 16.9557 28.8087 16.3143 29.5227 15.7847C29.4107 17.1655 29.3404 18.5922 29.7091 19.9437C29.9053 20.6631 30.28 21.5214 31.0756 21.7286C31.8874 21.9398 32.6056 21.4831 33.0526 20.8371C33.823 19.7239 33.8793 18.2975 33.4007 17.0565C33.0503 16.148 32.3214 15.0438 31.2917 14.8371C31.3146 14.5176 31.3571 14.1997 31.419 13.8854C31.4694 13.6549 31.5345 13.7203 31.7274 13.7648C32.3905 13.9178 33.0617 14.0642 33.7411 14.1206C33.8032 15.3668 34.4246 16.5908 35.6819 16.9862C37.1085 17.4347 38.6196 16.7611 39.7874 15.9743C41.0388 17.7604 43.4105 17.1311 44.9696 16.1484C45.9856 17.9604 48.1085 16.824 49.2149 15.7475C49.4998 16.4343 50.1334 17.1122 50.9344 17.1122C51.7736 17.1122 52.6682 16.4616 53.3233 16.0025C54.7587 18.0008 57.4783 16.9308 59.074 15.7485C59.0959 16.2216 59.1527 16.8601 59.6723 17.0598C60.1968 17.2615 60.6018 16.9488 60.7502 16.4469C61.0331 15.4897 60.8368 14.4517 61.3703 13.5627C61.855 12.7632 62.5103 12.0804 63.2894 11.5634C63.5267 11.4088 63.9926 11.3326 64.1247 11.0762C64.2535 10.8258 64.3008 10.3999 64.1804 10.138C64.1394 10.0483 64.2217 10.2279 64.1804 10.138L64.1804 10.1378ZM35.8268 12.0888C36.0289 11.5626 36.4634 11.1981 37.0415 11.1981C37.3218 11.1981 37.5998 11.3818 37.5719 11.6879C37.4732 12.7771 36.4665 12.9884 35.5953 12.9927C35.627 12.6815 35.705 12.3769 35.8268 12.0888C35.891 11.9216 35.7626 12.2559 35.8268 12.0888ZM5.23767 9.42847C5.39053 8.28449 5.68361 7.16366 6.1103 6.09126C6.30595 5.60682 6.53337 5.11618 6.85769 4.70269C6.9807 4.5458 7.13127 4.36939 7.32921 4.30771C7.607 4.22138 7.52823 4.67115 7.52823 4.8295C7.31658 6.97458 6.17176 9.10137 5.12974 10.9513C5.13087 10.4418 5.16696 9.9329 5.23775 9.42831C5.16572 9.95025 5.30978 8.90675 5.23775 9.42831L5.23767 9.42847ZM9.43246 13.0871C9.46423 12.5896 9.5805 12.0386 9.89939 11.6413C10.1603 11.3174 10.891 10.93 11.1722 11.4216C11.735 12.4133 10.3149 13.4956 9.41777 13.4956C9.41777 13.3825 9.42244 13.2461 9.43308 13.0869L9.43246 13.0871ZM17.3147 13.4647C17.2381 14.0863 17.0091 14.7689 16.6168 15.2626C16.093 15.922 15.4484 15.5822 15.3936 14.811C15.3039 13.5475 16.2606 11.1976 17.7849 11.1976L17.3147 13.4647ZM24.1786 14.6907C23.9313 15.1064 23.5666 15.5416 23.038 15.4839C22.4084 15.4155 22.2951 14.839 22.3652 14.3059C22.5271 13.0754 23.328 11.8384 24.4562 11.2905C24.4403 12.1583 24.479 13.0261 24.572 13.889C24.4636 14.1669 24.3319 14.4352 24.1784 14.691C24.1172 14.7937 24.3222 14.4545 24.1784 14.691L24.1786 14.6907ZM26.3062 11.3137V11.2367C26.305 10.1013 26.3761 8.96699 26.5193 7.84068C26.6049 7.09243 26.7393 6.35057 26.9216 5.61983C27.0351 5.18988 27.2223 4.28957 27.7203 4.12449C28.5196 3.85939 27.8591 6.95705 27.7808 7.25537C27.4158 8.64632 26.8835 9.99908 26.3062 11.314V11.3137ZM32.2942 19.1976C32.232 19.4393 31.9678 20.2767 31.5506 20.016C31.2594 19.8337 31.272 19.1819 31.2452 18.8803C31.1566 17.8786 31.1447 16.8717 31.2096 15.8682C31.8822 16.4907 32.7767 17.3176 32.2942 19.1972V19.1976ZM32.0895 9.9064C32.2205 8.82172 32.469 7.75449 32.8306 6.72348C32.966 6.32323 33.61 3.88082 34.4631 4.62784C35.185 5.25968 34.1033 6.89315 33.7943 7.48519C33.2056 8.60783 32.5757 9.70818 31.9815 10.8277C32.0175 10.5449 32.0535 10.2379 32.0895 9.9064ZM41.0694 13.0869C41.1012 12.5895 41.2177 12.0385 41.5359 11.6411C41.797 11.3172 42.5278 10.9298 42.8087 11.4215C43.3716 12.4132 41.9514 13.4955 41.0545 13.4955C41.0545 13.3824 41.0596 13.2462 41.0698 13.0868L41.0694 13.0869ZM48.2741 14.6906C48.0271 15.1062 47.6624 15.5414 47.1336 15.4837C46.5042 15.4153 46.3911 14.8388 46.461 14.3057C46.6229 13.0752 47.4236 11.8383 48.5518 11.2904C48.5633 12.0128 48.5929 13.1224 48.6676 13.8888C48.5593 14.1668 48.4277 14.4351 48.274 14.6908C48.2127 14.7936 48.418 14.4543 48.274 14.6908L48.2741 14.6906ZM50.4026 11.3136V11.2365C50.4014 10.1011 50.4727 8.96683 50.616 7.84053C50.7015 7.0922 50.8358 6.35026 51.0181 5.61945C51.1317 5.1895 51.3187 4.28919 51.817 4.12411C52.616 3.85901 51.9557 6.95667 51.8774 7.25499C51.5119 8.64594 50.9799 9.9987 50.4026 11.3136ZM54.5871 13.087C54.6189 12.5896 54.7351 12.0385 55.054 11.6412C55.3147 11.3173 56.0457 10.9299 56.3266 11.4216C56.8895 12.4132 55.4693 13.4955 54.5724 13.4955C54.5724 13.3824 54.577 13.2461 54.5877 13.0869" fill="white"/>
</g>
</svg>
